<?xml version="1.0" encoding="iso-8859-1"?>
<!-- Generator: Adobe Illustrator 17.1.0, SVG Export Plug-In . SVG Version: 6.00 Build 0)  -->
<!DOCTYPE svg PUBLIC "-//W3C//DTD SVG 1.1//EN" "http://www.w3.org/Graphics/SVG/1.1/DTD/svg11.dtd">
<svg version="1.1" id="Capa_1" xmlns="http://www.w3.org/2000/svg" xmlns:xlink="http://www.w3.org/1999/xlink" x="0px" y="0px"
	 viewBox="0 0 202.978 202.978" style="enable-background:new 0 0 202.978 202.978;" xml:space="preserve">
<path d="M135.394,180.66c0,12.306-10.012,22.318-22.318,22.318c-12.307,0-22.318-10.012-22.318-22.318c0-2.761,2.238-5,5-5h34.637
	C133.155,175.66,135.394,177.898,135.394,180.66z M202.162,165.108c-0.465,2.34-2.514,4.028-4.9,4.028H28.889
	c-2.39,0-4.445-1.691-4.906-4.035c-0.461-2.345,0.802-4.688,3.013-5.593c0.107-0.044,11.6-4.863,21.729-15.165
	c5.388-5.48,9.121-15.151,11.254-29.261c-0.565,0.016-1.127,0.043-1.695,0.043c-31.74,0-57.563-25.823-57.563-57.563
	C0.72,25.822,26.543,0,58.283,0C73.308,0,87,5.792,97.261,15.252c2.875-5.843,8.873-9.884,15.814-9.884
	c9.723,0,17.632,7.91,17.632,17.632c0,0.574-0.027,1.144-0.083,1.709c14.265,4.931,33.4,18.494,33.4,55.745
	c0,33.82,4.384,54.718,13.401,63.889c10.13,10.302,21.622,15.121,21.737,15.169C201.368,160.423,202.627,162.767,202.162,165.108z
	 M61.16,105.031c0.644-7.269,0.966-15.448,0.966-24.576c0-35.42,17.298-49.417,31.262-54.947C84.684,15.984,72.17,10,58.283,10
	C32.057,10,10.72,31.336,10.72,57.563c0,26.226,21.337,47.563,47.563,47.563C59.25,105.125,60.208,105.088,61.16,105.031z
	 M63.283,57.563V17.959c0-2.761-2.238-5-5-5s-5,2.239-5,5v34.603H28.03c-2.762,0-5,2.239-5,5c0,2.761,2.238,5,5,5h30.253
	C61.045,62.563,63.283,60.324,63.283,57.563z"/>
<g>
</g>
<g>
</g>
<g>
</g>
<g>
</g>
<g>
</g>
<g>
</g>
<g>
</g>
<g>
</g>
<g>
</g>
<g>
</g>
<g>
</g>
<g>
</g>
<g>
</g>
<g>
</g>
<g>
</g>
</svg>
